<svg xmlns="http://www.w3.org/2000/svg" width="96" height="96" fill="none" viewBox="0 0 96 96" id="loading"><path fill="url(#paint0_linear_821_12618)" fill-rule="evenodd" d="M44.9055 5.56213C40.1213 13.1031 37.4272 21.5547 36.8226 30.1198L27.4172 36.2505C25.789 37.3119 24.5534 38.8775 23.8995 40.7077L21.0915 48.5672C20.7456 49.5355 21.0278 50.6169 21.8028 51.2926C22.5778 51.9684 23.6875 52.1007 24.5997 51.6261L31.9151 47.8201C32.4682 47.5323 33.0823 47.3817 33.7057 47.3808L38.4532 47.3743C39.0677 49.6925 39.8428 51.9784 40.7786 54.2148C40.8367 54.3536 40.9065 54.4852 40.9864 54.6087L41.4698 55.7522L43.1296 55.7499L46.2381 55.7456C44.5321 56.3376 43.3085 57.9603 43.3111 59.8675C43.3123 60.7171 43.4192 61.5633 43.6295 62.3864L45.9678 71.5405C46.1943 72.427 46.9934 73.0467 47.9084 73.0455C48.8233 73.0442 49.6207 72.4222 49.8447 71.5351L52.1577 62.3746C52.3657 61.5509 52.4703 60.7045 52.4692 59.8549C52.4665 57.9476 51.2384 56.3284 49.5308 55.741L52.7819 55.7365L54.4417 55.7342L54.9234 54.586C55.002 54.4633 55.0706 54.3327 55.1278 54.1949C56.0575 51.9559 56.8263 49.668 57.4343 47.348L62.1819 47.3414C62.8053 47.3406 63.4199 47.4895 63.9737 47.7757L71.2997 51.5615C72.2131 52.0336 73.3225 51.8982 74.0956 51.2203C74.8687 50.5424 75.1479 49.4603 74.7993 48.4929L71.9696 40.6412C71.3106 38.8128 70.0707 37.2506 68.4396 36.1938L59.0173 30.089C58.3889 21.5257 55.6715 13.0816 50.8665 5.55389C49.4752 3.37429 46.2907 3.37871 44.9055 5.56213ZM36.7453 36.1386C36.8368 38.2258 37.0531 40.3087 37.3942 42.3757L33.6988 42.3808C32.2743 42.3828 30.8711 42.727 29.6074 43.3845L27.9434 44.2502L28.608 42.3899C28.8942 41.5889 29.435 40.9037 30.1476 40.4392L36.7453 36.1386ZM59.1119 36.1081C59.0262 38.1954 58.8157 40.2788 58.4803 42.3466L62.175 42.3414C63.5995 42.3395 65.0036 42.6798 66.2692 43.3338L67.9355 44.1949L67.2658 42.3365C66.9774 41.5362 66.4347 40.8525 65.7208 40.39L59.1119 36.1081ZM52.1378 20.2754C55.143 30.2339 54.7926 40.9562 51.0841 50.7387L44.8135 50.7473C41.078 40.9752 40.698 30.2539 43.6757 20.2871L52.1378 20.2754ZM47.8931 10.422C46.9911 12.0066 46.1876 13.6303 45.4825 15.2846L50.3171 15.2779C49.6075 13.6255 48.7995 12.0041 47.8931 10.422ZM47.3111 59.862C47.3108 59.6656 47.4698 59.5062 47.6662 59.5059L48.1131 59.5053C48.3095 59.505 48.4689 59.664 48.4692 59.8604C48.4699 60.3779 48.4061 60.8936 48.2794 61.3954L47.8944 62.9205L47.5051 61.3965C47.377 60.895 47.3118 60.3796 47.3111 59.862ZM47.6763 32.8469C49.1896 32.8448 50.4181 34.0699 50.4202 35.5832C50.4223 37.0966 49.1972 38.3251 47.6839 38.3272C46.1705 38.3293 44.942 37.1042 44.9399 35.5908C44.9378 34.0775 46.163 32.849 47.6763 32.8469ZM17.5 84.0006C17.5 81.5153 19.5147 79.5006 22 79.5006H74C76.4853 79.5006 78.5 81.5153 78.5 84.0006C78.5 86.4859 76.4853 88.5006 74 88.5006H22C19.5147 88.5006 17.5 86.4859 17.5 84.0006ZM22 74.5006C16.7533 74.5006 12.5 78.7539 12.5 84.0006C12.5 89.2473 16.7533 93.5006 22 93.5006H74C79.2467 93.5006 83.5 89.2473 83.5 84.0006C83.5 78.7539 79.2467 74.5006 74 74.5006H22ZM19.5 84.0006C19.5 82.6199 20.6193 81.5006 22 81.5006H26C27.3807 81.5006 28.5 82.6199 28.5 84.0006C28.5 85.3813 27.3807 86.5006 26 86.5006H22C20.6193 86.5006 19.5 85.3813 19.5 84.0006ZM33 81.5006C31.6193 81.5006 30.5 82.6199 30.5 84.0006C30.5 85.3813 31.6193 86.5006 33 86.5006H37C38.3807 86.5006 39.5 85.3813 39.5 84.0006C39.5 82.6199 38.3807 81.5006 37 81.5006H33ZM41.5 84.0006C41.5 82.6199 42.6193 81.5006 44 81.5006H48C49.3807 81.5006 50.5 82.6199 50.5 84.0006C50.5 85.3813 49.3807 86.5006 48 86.5006H44C42.6193 86.5006 41.5 85.3813 41.5 84.0006ZM55 81.5006C53.6193 81.5006 52.5 82.6199 52.5 84.0006C52.5 85.3813 53.6193 86.5006 55 86.5006H59C60.3807 86.5006 61.5 85.3813 61.5 84.0006C61.5 82.6199 60.3807 81.5006 59 81.5006H55Z" clip-rule="evenodd"></path><defs><linearGradient id="paint0_linear_821_12618" x1="48" x2="48" y1="3.922" y2="93.501" gradientUnits="userSpaceOnUse"><stop stop-color="#09A4FB"></stop><stop offset="1" stop-color="#3840F3"></stop></linearGradient></defs></svg>